<mxfile host="Electron" modified="2023-09-26T02:03:31.738Z" agent="Mozilla/5.0 (Windows NT 10.0; Win64; x64) AppleWebKit/537.36 (KHTML, like Gecko) draw.io/21.7.5 Chrome/114.0.5735.289 Electron/25.8.1 Safari/537.36" etag="5ttCQLiIoWsPv0j6ry5a" version="21.7.5" type="device">
  <diagram name="Page-1" id="0fA8ml8_20Uv16nNUi4D">
    <mxGraphModel dx="1021" dy="605" grid="1" gridSize="10" guides="1" tooltips="1" connect="1" arrows="1" fold="1" page="1" pageScale="1" pageWidth="850" pageHeight="1100" math="0" shadow="0">
      <root>
        <mxCell id="0" />
        <mxCell id="1" parent="0" />
        <mxCell id="pqfJO1aBag-DY2ZZ6nMy-3" style="edgeStyle=orthogonalEdgeStyle;rounded=0;orthogonalLoop=1;jettySize=auto;html=1;exitX=0.5;exitY=1;exitDx=0;exitDy=0;" edge="1" parent="1" source="pqfJO1aBag-DY2ZZ6nMy-1" target="pqfJO1aBag-DY2ZZ6nMy-2">
          <mxGeometry relative="1" as="geometry" />
        </mxCell>
        <mxCell id="pqfJO1aBag-DY2ZZ6nMy-1" value="" style="ellipse;fillColor=strokeColor;html=1;" vertex="1" parent="1">
          <mxGeometry x="410" y="80" width="30" height="30" as="geometry" />
        </mxCell>
        <mxCell id="pqfJO1aBag-DY2ZZ6nMy-5" style="edgeStyle=orthogonalEdgeStyle;rounded=0;orthogonalLoop=1;jettySize=auto;html=1;exitX=0.5;exitY=1;exitDx=0;exitDy=0;entryX=0.5;entryY=0;entryDx=0;entryDy=0;" edge="1" parent="1" source="pqfJO1aBag-DY2ZZ6nMy-2" target="pqfJO1aBag-DY2ZZ6nMy-4">
          <mxGeometry relative="1" as="geometry" />
        </mxCell>
        <mxCell id="pqfJO1aBag-DY2ZZ6nMy-2" value="Fill form" style="html=1;align=center;verticalAlign=top;rounded=1;absoluteArcSize=1;arcSize=10;dashed=0;whiteSpace=wrap;" vertex="1" parent="1">
          <mxGeometry x="368" y="170" width="115" height="30" as="geometry" />
        </mxCell>
        <mxCell id="pqfJO1aBag-DY2ZZ6nMy-7" style="edgeStyle=orthogonalEdgeStyle;rounded=0;orthogonalLoop=1;jettySize=auto;html=1;exitX=0.5;exitY=1;exitDx=0;exitDy=0;" edge="1" parent="1" source="pqfJO1aBag-DY2ZZ6nMy-4" target="pqfJO1aBag-DY2ZZ6nMy-6">
          <mxGeometry relative="1" as="geometry" />
        </mxCell>
        <mxCell id="pqfJO1aBag-DY2ZZ6nMy-4" value="Send to agent" style="html=1;align=center;verticalAlign=top;rounded=1;absoluteArcSize=1;arcSize=10;dashed=0;whiteSpace=wrap;" vertex="1" parent="1">
          <mxGeometry x="363" y="250" width="124" height="30" as="geometry" />
        </mxCell>
        <mxCell id="pqfJO1aBag-DY2ZZ6nMy-9" style="edgeStyle=orthogonalEdgeStyle;rounded=0;orthogonalLoop=1;jettySize=auto;html=1;exitX=0.5;exitY=1;exitDx=0;exitDy=0;" edge="1" parent="1" source="pqfJO1aBag-DY2ZZ6nMy-6" target="pqfJO1aBag-DY2ZZ6nMy-8">
          <mxGeometry relative="1" as="geometry" />
        </mxCell>
        <mxCell id="pqfJO1aBag-DY2ZZ6nMy-6" value="Send application to insurance companies" style="html=1;align=center;verticalAlign=top;rounded=1;absoluteArcSize=1;arcSize=10;dashed=0;whiteSpace=wrap;" vertex="1" parent="1">
          <mxGeometry x="355" y="330" width="140" height="40" as="geometry" />
        </mxCell>
        <mxCell id="pqfJO1aBag-DY2ZZ6nMy-11" style="edgeStyle=orthogonalEdgeStyle;rounded=0;orthogonalLoop=1;jettySize=auto;html=1;exitX=0.5;exitY=1;exitDx=0;exitDy=0;entryX=0.5;entryY=0;entryDx=0;entryDy=0;" edge="1" parent="1" source="pqfJO1aBag-DY2ZZ6nMy-8" target="pqfJO1aBag-DY2ZZ6nMy-10">
          <mxGeometry relative="1" as="geometry" />
        </mxCell>
        <mxCell id="pqfJO1aBag-DY2ZZ6nMy-12" value="Best Deal?" style="edgeLabel;html=1;align=center;verticalAlign=middle;resizable=0;points=[];" vertex="1" connectable="0" parent="pqfJO1aBag-DY2ZZ6nMy-11">
          <mxGeometry x="0.2095" y="-1" relative="1" as="geometry">
            <mxPoint x="30" y="-11" as="offset" />
          </mxGeometry>
        </mxCell>
        <mxCell id="pqfJO1aBag-DY2ZZ6nMy-8" value="Get quotations" style="html=1;align=center;verticalAlign=top;rounded=1;absoluteArcSize=1;arcSize=10;dashed=0;whiteSpace=wrap;" vertex="1" parent="1">
          <mxGeometry x="363" y="420" width="125" height="30" as="geometry" />
        </mxCell>
        <mxCell id="pqfJO1aBag-DY2ZZ6nMy-15" style="edgeStyle=orthogonalEdgeStyle;rounded=0;orthogonalLoop=1;jettySize=auto;html=1;exitX=0.5;exitY=1;exitDx=0;exitDy=0;" edge="1" parent="1" source="pqfJO1aBag-DY2ZZ6nMy-10" target="pqfJO1aBag-DY2ZZ6nMy-14">
          <mxGeometry relative="1" as="geometry" />
        </mxCell>
        <mxCell id="pqfJO1aBag-DY2ZZ6nMy-16" value="Yes" style="edgeLabel;html=1;align=center;verticalAlign=middle;resizable=0;points=[];" vertex="1" connectable="0" parent="pqfJO1aBag-DY2ZZ6nMy-15">
          <mxGeometry x="-0.1755" y="-1" relative="1" as="geometry">
            <mxPoint x="12" as="offset" />
          </mxGeometry>
        </mxCell>
        <mxCell id="pqfJO1aBag-DY2ZZ6nMy-18" style="edgeStyle=orthogonalEdgeStyle;rounded=0;orthogonalLoop=1;jettySize=auto;html=1;exitX=1;exitY=0.5;exitDx=0;exitDy=0;entryX=0.5;entryY=0;entryDx=0;entryDy=0;" edge="1" parent="1" source="pqfJO1aBag-DY2ZZ6nMy-10" target="pqfJO1aBag-DY2ZZ6nMy-17">
          <mxGeometry relative="1" as="geometry" />
        </mxCell>
        <mxCell id="pqfJO1aBag-DY2ZZ6nMy-19" value="No" style="edgeLabel;html=1;align=center;verticalAlign=middle;resizable=0;points=[];" vertex="1" connectable="0" parent="pqfJO1aBag-DY2ZZ6nMy-18">
          <mxGeometry x="0.0341" relative="1" as="geometry">
            <mxPoint x="-27" y="-9" as="offset" />
          </mxGeometry>
        </mxCell>
        <mxCell id="pqfJO1aBag-DY2ZZ6nMy-10" value="" style="rhombus;" vertex="1" parent="1">
          <mxGeometry x="410.5" y="530" width="30" height="30" as="geometry" />
        </mxCell>
        <mxCell id="pqfJO1aBag-DY2ZZ6nMy-23" style="edgeStyle=orthogonalEdgeStyle;rounded=0;orthogonalLoop=1;jettySize=auto;html=1;exitX=0.5;exitY=1;exitDx=0;exitDy=0;entryX=0.5;entryY=0;entryDx=0;entryDy=0;" edge="1" parent="1" source="pqfJO1aBag-DY2ZZ6nMy-14" target="pqfJO1aBag-DY2ZZ6nMy-22">
          <mxGeometry relative="1" as="geometry" />
        </mxCell>
        <mxCell id="pqfJO1aBag-DY2ZZ6nMy-24" value="Accept/Reject?" style="edgeLabel;html=1;align=center;verticalAlign=middle;resizable=0;points=[];" vertex="1" connectable="0" parent="pqfJO1aBag-DY2ZZ6nMy-23">
          <mxGeometry x="-0.2637" y="1" relative="1" as="geometry">
            <mxPoint x="38" y="6" as="offset" />
          </mxGeometry>
        </mxCell>
        <mxCell id="pqfJO1aBag-DY2ZZ6nMy-14" value="Share with customer" style="html=1;align=center;verticalAlign=top;rounded=1;absoluteArcSize=1;arcSize=10;dashed=0;whiteSpace=wrap;" vertex="1" parent="1">
          <mxGeometry x="359" y="600" width="132" height="30" as="geometry" />
        </mxCell>
        <mxCell id="pqfJO1aBag-DY2ZZ6nMy-33" style="edgeStyle=orthogonalEdgeStyle;rounded=0;orthogonalLoop=1;jettySize=auto;html=1;exitX=0.5;exitY=1;exitDx=0;exitDy=0;entryX=1;entryY=0.5;entryDx=0;entryDy=0;" edge="1" parent="1" source="pqfJO1aBag-DY2ZZ6nMy-17" target="pqfJO1aBag-DY2ZZ6nMy-30">
          <mxGeometry relative="1" as="geometry" />
        </mxCell>
        <mxCell id="pqfJO1aBag-DY2ZZ6nMy-17" value="Reject" style="html=1;align=center;verticalAlign=top;rounded=1;absoluteArcSize=1;arcSize=10;dashed=0;whiteSpace=wrap;" vertex="1" parent="1">
          <mxGeometry x="630" y="600" width="70" height="30" as="geometry" />
        </mxCell>
        <mxCell id="pqfJO1aBag-DY2ZZ6nMy-26" style="edgeStyle=orthogonalEdgeStyle;rounded=0;orthogonalLoop=1;jettySize=auto;html=1;exitX=0.5;exitY=1;exitDx=0;exitDy=0;entryX=0.5;entryY=0;entryDx=0;entryDy=0;" edge="1" parent="1" source="pqfJO1aBag-DY2ZZ6nMy-22" target="pqfJO1aBag-DY2ZZ6nMy-25">
          <mxGeometry relative="1" as="geometry" />
        </mxCell>
        <mxCell id="pqfJO1aBag-DY2ZZ6nMy-27" value="Accept" style="edgeLabel;html=1;align=center;verticalAlign=middle;resizable=0;points=[];" vertex="1" connectable="0" parent="pqfJO1aBag-DY2ZZ6nMy-26">
          <mxGeometry x="-0.1175" relative="1" as="geometry">
            <mxPoint x="21" y="1" as="offset" />
          </mxGeometry>
        </mxCell>
        <mxCell id="pqfJO1aBag-DY2ZZ6nMy-29" style="edgeStyle=orthogonalEdgeStyle;rounded=0;orthogonalLoop=1;jettySize=auto;html=1;exitX=1;exitY=0.5;exitDx=0;exitDy=0;entryX=0;entryY=0.5;entryDx=0;entryDy=0;" edge="1" parent="1" source="pqfJO1aBag-DY2ZZ6nMy-22" target="pqfJO1aBag-DY2ZZ6nMy-28">
          <mxGeometry relative="1" as="geometry" />
        </mxCell>
        <mxCell id="pqfJO1aBag-DY2ZZ6nMy-22" value="" style="rhombus;" vertex="1" parent="1">
          <mxGeometry x="410" y="690" width="30" height="30" as="geometry" />
        </mxCell>
        <mxCell id="pqfJO1aBag-DY2ZZ6nMy-31" style="edgeStyle=orthogonalEdgeStyle;rounded=0;orthogonalLoop=1;jettySize=auto;html=1;exitX=0.5;exitY=1;exitDx=0;exitDy=0;entryX=0.5;entryY=0;entryDx=0;entryDy=0;" edge="1" parent="1" source="pqfJO1aBag-DY2ZZ6nMy-25" target="pqfJO1aBag-DY2ZZ6nMy-30">
          <mxGeometry relative="1" as="geometry" />
        </mxCell>
        <mxCell id="pqfJO1aBag-DY2ZZ6nMy-25" value="Take proposal and quote" style="html=1;align=center;verticalAlign=top;rounded=1;absoluteArcSize=1;arcSize=10;dashed=0;whiteSpace=wrap;" vertex="1" parent="1">
          <mxGeometry x="355.5" y="780" width="140" height="30" as="geometry" />
        </mxCell>
        <mxCell id="pqfJO1aBag-DY2ZZ6nMy-32" style="edgeStyle=orthogonalEdgeStyle;rounded=0;orthogonalLoop=1;jettySize=auto;html=1;exitX=0.5;exitY=1;exitDx=0;exitDy=0;entryX=1;entryY=0;entryDx=0;entryDy=0;" edge="1" parent="1" source="pqfJO1aBag-DY2ZZ6nMy-28" target="pqfJO1aBag-DY2ZZ6nMy-30">
          <mxGeometry relative="1" as="geometry">
            <Array as="points">
              <mxPoint x="575" y="904" />
            </Array>
          </mxGeometry>
        </mxCell>
        <mxCell id="pqfJO1aBag-DY2ZZ6nMy-28" value="Abandon offer" style="html=1;align=center;verticalAlign=top;rounded=1;absoluteArcSize=1;arcSize=10;dashed=0;whiteSpace=wrap;" vertex="1" parent="1">
          <mxGeometry x="520" y="690" width="110" height="30" as="geometry" />
        </mxCell>
        <mxCell id="pqfJO1aBag-DY2ZZ6nMy-30" value="" style="ellipse;html=1;shape=endState;fillColor=strokeColor;" vertex="1" parent="1">
          <mxGeometry x="411" y="900" width="30" height="30" as="geometry" />
        </mxCell>
        <mxCell id="pqfJO1aBag-DY2ZZ6nMy-34" value="Rahul Siloniya&lt;br&gt;IT A1&lt;br&gt;12113018" style="text;html=1;strokeColor=none;fillColor=none;align=center;verticalAlign=middle;whiteSpace=wrap;rounded=0;" vertex="1" parent="1">
          <mxGeometry x="640" y="970" width="150" height="80" as="geometry" />
        </mxCell>
      </root>
    </mxGraphModel>
  </diagram>
</mxfile>
